<?xml version="1.0" encoding="UTF-8"?> <svg xmlns="http://www.w3.org/2000/svg" id="Layer_1" data-name="Layer 1" viewBox="0 0 400 400"> <defs> <style>.cls-1{fill:#444;}.cls-2{fill:rgba(125, 125, 125, 0.0);}</style> </defs> <title>Carousel CP Blue BG</title> <path class="cls-1" d="M325,77a25,25,0,0,1,25,25V302a25,25,0,0,1-25,25H75a25,25,0,0,1-25-25V102A25,25,0,0,1,75,77H325m0-22H75a47,47,0,0,0-47,47V302a47,47,0,0,0,47,47H325a47,47,0,0,0,47-47V102a47,47,0,0,0-47-47Z"></path> <path class="cls-1" d="M84.48,202l25.72-25.71a7.81,7.81,0,1,0-11-11.05L67.91,196.48a7.82,7.82,0,0,0,0,11.05l31.25,31.25a7.82,7.82,0,0,0,11.06-11.07Z"></path> <circle class="cls-2" cx="140" cy="288.45" r="20"></circle> <circle class="cls-2" cx="200" cy="288.45" r="20"></circle> <circle class="cls-2" cx="260" cy="288.45" r="20"></circle> <path class="cls-1" d="M301.18,165.24a7.81,7.81,0,1,0-11.05,11L315.85,202l-25.72,25.72a7.82,7.82,0,0,0,11.06,11.05l31.25-31.25a7.78,7.78,0,0,0,0-11Z"></path> </svg> 